<?xml version="1.0" encoding="UTF-8" standalone="no"?>
<svg
   width="100.015"
   height="90.375"
   viewBox="0 0 100.015 90.375003"
   class="css-1j8o68f"
   version="1.1"
   id="svg126"
   sodipodi:docname="logo-mobile.svg"
   inkscape:version="1.1.1 (c3084ef, 2021-09-22)"
   xmlns:inkscape="http://www.inkscape.org/namespaces/inkscape"
   xmlns:sodipodi="http://sodipodi.sourceforge.net/DTD/sodipodi-0.dtd"
   xmlns="http://www.w3.org/2000/svg"
   xmlns:svg="http://www.w3.org/2000/svg">
  <sodipodi:namedview
     id="namedview128"
     pagecolor="#ffffff"
     bordercolor="#666666"
     borderopacity="1.0"
     inkscape:pageshadow="2"
     inkscape:pageopacity="0.0"
     inkscape:pagecheckerboard="0"
     showgrid="false"
     inkscape:zoom="3.2106742"
     inkscape:cx="178"
     inkscape:cy="45.317585"
     inkscape:window-width="1312"
     inkscape:window-height="969"
     inkscape:window-x="0"
     inkscape:window-y="25"
     inkscape:window-maximized="0"
     inkscape:current-layer="svg126" />
  <defs
     id="SvgjsDefs3469" />
  <g
     id="SvgjsG3470"
     featurekey="symbolFeature-0"
     transform="matrix(1.205,0,0,1.205,-10.2425,-15.665)"
     fill="#000000">
    <path
       d="m 83.5,50.5 h -3 C 80.5,30.5 65,16 46,16 27,16 11.5,30.5 11.5,50.5 h -3 C 8.5,29.5 25.3,13 46,13 66.7,13 83.5,29.5 83.5,50.5 Z"
       id="path101" />
    <path
       d="m 75.5,50.5 h -3 C 72.5,35.5 60.6,24 46,24 31.4,24 19.5,35.5 19.5,50.5 h -3 C 16.5,33.5 29.7,21 46,21 62.3,21 75.5,33.5 75.5,50.5 Z"
       id="path103" />
    <path
       d="m 59.5,50.5 h -3 C 56.5,44.5 51.8,40 46,40 40.2,40 35.5,44.5 35.5,50.5 h -3 c 0,-8 6.1,-13.5 13.5,-13.5 7.4,0 13.5,5.5 13.5,13.5 z"
       id="path105" />
    <path
       d="m 67.5,50.5 h -3 C 64.5,39.5 56.2,32 46,32 35.8,32 27.5,39.5 27.5,50.5 h -3 C 24.5,38.5 34.1,29 46,29 c 11.9,0 21.5,9.5 21.5,21.5 z"
       id="path107" />
    <path
       d="M 54,88 C 33.3,88 16.5,70.5 16.5,50.5 h 3 C 19.5,69.5 35,85 54,85 73,85 88.5,69.5 88.5,50.5 h 3 C 91.5,70.5 74.7,88 54,88 Z"
       id="path109" />
    <path
       d="M 54,80 C 37.7,80 24.5,66.5 24.5,50.5 h 3 C 27.5,64.5 39.4,77 54,77 68.6,77 80.5,64.5 80.5,50.5 h 3 C 83.5,66.5 70.3,80 54,80 Z"
       id="path111" />
    <path
       d="M 54,64 C 46.6,64 40.5,57.5 40.5,50.5 h 3 c 0,5 4.7,10.5 10.5,10.5 5.8,0 10.5,-5.5 10.5,-10.5 h 3 C 67.5,57.5 61.4,64 54,64 Z"
       id="path113" />
    <path
       d="M 54,72 C 42.1,72 32.5,61.5 32.5,50.5 h 3 c 0,10 8.3,18.5 18.5,18.5 10.2,0 18.5,-8.5 18.5,-18.5 h 3 C 75.5,61.5 65.9,72 54,72 Z"
       id="path115" />
  </g>
</svg>
