<?xml version="1.0" encoding="UTF-8" standalone="no"?>
<svg
   width="355.9975"
   height="90.375"
   viewBox="0 0 355.9975 90.375003"
   class="css-1j8o68f"
   version="1.1"
   id="svg93"
   sodipodi:docname="logo.svg"
   inkscape:version="1.1.1 (c3084ef, 2021-09-22)"
   xmlns:inkscape="http://www.inkscape.org/namespaces/inkscape"
   xmlns:sodipodi="http://sodipodi.sourceforge.net/DTD/sodipodi-0.dtd"
   xmlns="http://www.w3.org/2000/svg"
   xmlns:svg="http://www.w3.org/2000/svg">
  <sodipodi:namedview
     id="namedview95"
     pagecolor="#ffffff"
     bordercolor="#666666"
     borderopacity="1.0"
     inkscape:pageshadow="2"
     inkscape:pageopacity="0.0"
     inkscape:pagecheckerboard="0"
     showgrid="false"
     inkscape:zoom="3.2106742"
     inkscape:cx="178"
     inkscape:cy="45.317585"
     inkscape:window-width="1312"
     inkscape:window-height="969"
     inkscape:window-x="0"
     inkscape:window-y="25"
     inkscape:window-maximized="0"
     inkscape:current-layer="svg93" />
  <defs
     id="SvgjsDefs3469" />
  <g
     id="SvgjsG3470"
     featurekey="symbolFeature-0"
     transform="matrix(1.205,0,0,1.205,-10.2425,-15.665)"
     fill="#000000">
    <path
       d="m 83.5,50.5 h -3 C 80.5,30.5 65,16 46,16 27,16 11.5,30.5 11.5,50.5 h -3 C 8.5,29.5 25.3,13 46,13 66.7,13 83.5,29.5 83.5,50.5 Z"
       id="path68" />
    <path
       d="m 75.5,50.5 h -3 C 72.5,35.5 60.6,24 46,24 31.4,24 19.5,35.5 19.5,50.5 h -3 C 16.5,33.5 29.7,21 46,21 62.3,21 75.5,33.5 75.5,50.5 Z"
       id="path70" />
    <path
       d="m 59.5,50.5 h -3 C 56.5,44.5 51.8,40 46,40 40.2,40 35.5,44.5 35.5,50.5 h -3 c 0,-8 6.1,-13.5 13.5,-13.5 7.4,0 13.5,5.5 13.5,13.5 z"
       id="path72" />
    <path
       d="m 67.5,50.5 h -3 C 64.5,39.5 56.2,32 46,32 35.8,32 27.5,39.5 27.5,50.5 h -3 C 24.5,38.5 34.1,29 46,29 c 11.9,0 21.5,9.5 21.5,21.5 z"
       id="path74" />
    <path
       d="M 54,88 C 33.3,88 16.5,70.5 16.5,50.5 h 3 C 19.5,69.5 35,85 54,85 73,85 88.5,69.5 88.5,50.5 h 3 C 91.5,70.5 74.7,88 54,88 Z"
       id="path76" />
    <path
       d="M 54,80 C 37.7,80 24.5,66.5 24.5,50.5 h 3 C 27.5,64.5 39.4,77 54,77 68.6,77 80.5,64.5 80.5,50.5 h 3 C 83.5,66.5 70.3,80 54,80 Z"
       id="path78" />
    <path
       d="M 54,64 C 46.6,64 40.5,57.5 40.5,50.5 h 3 c 0,5 4.7,10.5 10.5,10.5 5.8,0 10.5,-5.5 10.5,-10.5 h 3 C 67.5,57.5 61.4,64 54,64 Z"
       id="path80" />
    <path
       d="M 54,72 C 42.1,72 32.5,61.5 32.5,50.5 h 3 c 0,10 8.3,18.5 18.5,18.5 10.2,0 18.5,-8.5 18.5,-18.5 h 3 C 75.5,61.5 65.9,72 54,72 Z"
       id="path82" />
  </g>
  <g
     id="SvgjsG3471"
     featurekey="textGroupContainer"
     transform="translate(354.9975,22.995)"
     fill="#000000">
    <rect
       y="0"
       height="1"
       width="1"
       opacity="0"
       id="rect85"
       x="0" />
    <rect
       y="0"
       x="-235"
       width="3"
       height="44"
       id="rect87" />
  </g>
  <g
     id="SvgjsG3472"
     featurekey="vMvB0T-0"
     transform="matrix(1.5837821,0,0,1.5837821,135.90691,24.238903)"
     fill="#000000">
    <path
       d="m 12.14,6.34 v 8.62 q 0,2.56 -1.4,3.95 -1.4,1.39 -4,1.39 -2.6,0 -4.01,-1.39 Q 1.32,17.52 1.32,14.96 V 6.34 L 1.46,6.2 h 1.18 q 1.9,0 1.9,2.04 V 15 q 0,1.4 0.5,2.08 0.5,0.68 1.7,0.68 1.2,0 1.7,-0.68 Q 8.94,16.4 8.94,15 V 6.34 q 0.62,-0.12 1.6,-0.12 0.96,0 1.6,0.12 z m 13.6,-0.14 0.14,0.14 v 13.6 q -0.8,0.18 -1.89,0.18 -1.09,0 -1.93,-0.12 l -3.14,-7.16 q -0.56,-1.22 -1.14,-2.82 l -0.06,0.02 q 0.24,2.92 0.24,5.98 V 20 q -0.62,0.12 -1.5,0.12 -0.88,0 -1.48,-0.12 V 6.4 q 0.76,-0.18 1.83,-0.18 1.07,0 1.91,0.12 l 3.1,7.14 q 0.84,1.98 1.24,3.04 l 0.08,-0.04 Q 22.9,13.7 22.9,10.58 V 8.14 Q 22.9,7.1 23.32,6.65 23.74,6.2 24.68,6.2 Z m 12.96,4.36 q 0,0.66 -0.2,1.25 -0.2,0.59 -0.53,1.06 -0.33,0.47 -0.78,0.82 -0.45,0.35 -0.93,0.53 1.04,0.38 1.54,1.84 l 0.6,1.7 q 0.34,1 1,1.48 -0.3,0.4 -0.9,0.67 -0.6,0.27 -1.32,0.27 -0.72,0 -1.12,-0.41 -0.4,-0.41 -0.74,-1.43 L 34.6,16.24 Q 34.38,15.64 34.01,15.32 33.64,15 32.9,15 h -0.82 v 5 q -0.64,0.12 -1.6,0.12 -0.96,0 -1.58,-0.12 V 6.44 L 29.04,6.3 q 1.74,-0.04 2.93,-0.06 1.19,-0.02 1.87,-0.02 1.1,0 2,0.27 0.9,0.27 1.53,0.81 0.63,0.54 0.98,1.36 0.35,0.82 0.35,1.9 z M 32.08,8.62 v 3.92 q 0.9,0 1.54,-0.03 0.64,-0.03 1.03,-0.24 0.39,-0.21 0.59,-0.59 0.2,-0.38 0.2,-1.1 0,-1.94 -1.88,-1.94 h -0.83 q 0,0 -0.65,-0.02 z m 12.44,8.52 q -0.54,0 -0.8,-0.02 l -0.86,2.9 q -0.48,0.12 -1.34,0.12 -0.96,0 -1.56,-0.22 l -0.1,-0.16 4.4,-13.42 q 0.78,-0.12 1.82,-0.12 1.18,0 1.88,0.14 l 4.32,13.44 q -0.7,0.38 -1.58,0.38 -1.04,0 -1.46,-0.36 -0.42,-0.36 -0.72,-1.38 l -0.38,-1.32 q -0.26,0.02 -0.78,0.02 z m -0.06,-2.52 0.8,-0.02 h 1.46 q 0.1,0 0.35,0.01 0.25,0.01 0.37,0.01 L 47.1,13.38 Q 46.62,11.7 46,9.26 h -0.12 q -0.16,0.86 -0.96,3.82 z m 13.32,2.7 2.62,-10.98 q 0.48,-0.12 1.24,-0.12 1.04,0 1.64,0.22 L 63.4,6.6 59.66,20 q -1.14,0.12 -2.29,0.12 -1.15,0 -1.66,-0.29 -0.51,-0.29 -0.77,-1.15 L 51.62,6.62 q 1.08,-0.46 1.78,-0.46 0.84,0 1.24,0.38 0.4,0.38 0.62,1.2 l 1.54,5.7 q 0.36,1.34 0.76,3.64 0.04,0.24 0.22,0.24 z M 68.22,15.96 68.2,17.4 v 0.02 q 0.92,-0.04 1.48,-0.04 h 4.64 q 0,0.74 -0.06,1.14 -0.24,1.54 -2.04,1.54 H 66.9 q -0.86,0 -1.35,-0.5 -0.49,-0.5 -0.49,-1.36 V 6.48 L 65.2,6.34 h 8.62 q 0.12,0.58 0.12,1.26 0,0.68 -0.28,1.42 H 68.2 l 0.02,1.44 v 1.4 q 0.52,-0.02 1.36,-0.02 h 3.06 q 0.18,0.56 0.18,1.28 0,0.72 -0.18,1.32 H 68.22 Z M 81.6,17.3 h 3.46 q 0,0.8 -0.1,1.37 -0.1,0.57 -0.64,0.98 -0.54,0.41 -1.42,0.41 h -4.52 q -0.86,0 -1.36,-0.5 -0.5,-0.5 -0.5,-1.36 V 6.34 L 76.66,6.2 h 1.18 q 1.88,0 1.88,2.04 v 9.14 Q 80.6,17.3 81.6,17.3 Z m 8.52,-1.34 -0.02,1.44 v 0.02 q 0.92,-0.04 1.48,-0.04 h 4.64 q 0,0.74 -0.06,1.14 -0.24,1.54 -2.04,1.54 H 88.8 q -0.86,0 -1.35,-0.5 -0.49,-0.5 -0.49,-1.36 V 6.48 L 87.1,6.34 h 8.62 q 0.12,0.58 0.12,1.26 0,0.68 -0.28,1.42 H 90.1 l 0.02,1.44 v 1.4 q 0.52,-0.02 1.36,-0.02 h 3.06 q 0.18,0.56 0.18,1.28 0,0.72 -0.18,1.32 h -4.42 z m 17.16,3.16 q -0.64,0.52 -1.68,0.76 -1.04,0.24 -2.3,0.24 -0.62,0 -1.79,-0.02 -1.17,-0.02 -2.93,-0.06 L 98.44,19.9 V 6.44 L 98.58,6.3 q 1.16,-0.04 2.41,-0.06 1.25,-0.02 2.63,-0.02 1.7,0 2.84,0.54 1.14,0.54 1.82,1.48 0.68,0.94 0.96,2.21 0.28,1.27 0.28,2.73 0,2 -0.46,3.46 -0.46,1.46 -1.78,2.48 z m -3.68,-1.5 q 2.64,0 2.64,-4.44 0,-4.46 -2.64,-4.46 h -1.13 q 0,0 -0.85,-0.02 v 8.94 q 0.36,-0.02 0.85,-0.02 z m 11.3,-0.48 q -0.54,0 -0.8,-0.02 l -0.86,2.9 q -0.48,0.12 -1.34,0.12 -0.96,0 -1.56,-0.22 l -0.1,-0.16 4.4,-13.42 q 0.78,-0.12 1.82,-0.12 1.18,0 1.88,0.14 l 4.32,13.44 q -0.7,0.38 -1.58,0.38 -1.04,0 -1.46,-0.36 -0.42,-0.36 -0.72,-1.38 l -0.38,-1.32 q -0.26,0.02 -0.78,0.02 z m -0.06,-2.52 0.8,-0.02 h 1.46 q 0.1,0 0.35,0.01 0.25,0.01 0.37,0.01 l -0.34,-1.24 Q 117,11.7 116.38,9.26 h -0.12 q -0.16,0.86 -0.96,3.82 z M 124.38,20 V 6.34 q 0.62,-0.12 1.6,-0.12 0.98,0 1.62,0.12 V 20 q -0.64,0.12 -1.62,0.12 -0.98,0 -1.6,-0.12 z"
       id="path90" />
  </g>
</svg>
